<svg version="1.1" xmlns="http://www.w3.org/2000/svg" xmlns:xlink="http://www.w3.org/1999/xlink" x="0px" y="0px" viewBox="0 0 48 48" style="enable-background:new 0 0 48 48;" xml:space="preserve">
<path fill="#ea4335" d="M12.47,24l7.13-4.11c1.68-1.01,2.26-3.1,1.26-4.78c-1.01-1.68-3.1-2.26-4.78-1.26L3.83,20.98L12.47,24z"/>
<path fill="#4285f4" d="M17.84,34.64c1.17,0,2.43-0.67,3.02-1.76c1.01-1.68,0.42-3.86-1.26-4.78L7.27,20.98
	c-1.68-1.01-3.86-0.42-4.78,1.26c-1.01,1.68-0.42,3.86,1.26,4.78l12.33,7.13C16.66,34.48,17.25,34.64,17.84,34.64z"/>
<path fill="#fbbc04" d="M30.16,34.64c0.58,0,1.17-0.17,1.76-0.5l12.33-7.13l-8.64-3.1L28.4,28.1c-1.68,1.01-2.26,3.1-1.26,4.78
	C27.73,33.97,28.91,34.64,30.16,34.64z"/>
<path fill="#0f9d58" d="M42.49,27.52c1.17,0,2.43-0.67,3.02-1.76c1.01-1.68,0.42-3.86-1.26-4.78l-12.32-7.13
	c-1.68-1.01-3.86-0.42-4.78,1.26c-1.01,1.68-0.42,3.86,1.26,4.78l12.32,7.13C41.23,27.35,41.82,27.52,42.49,27.52z"/>
</svg>
